<svg width="64" height="51" viewBox="0 0 64 51" fill="none" xmlns="http://www.w3.org/2000/svg">
<path d="M39.3848 2.59917C41.8653 4.68782 43.6572 7.37531 44.127 10.6382C44.3681 15.1473 43.2598 18.2732 40.252 21.6382C40.3733 21.6515 40.3733 21.6515 40.4971 21.6651C41.0324 21.8034 41.4757 22.0625 41.9551 22.3335C42.0544 22.3891 42.1537 22.4447 42.256 22.5019C43.0485 22.9527 43.7854 23.4482 44.502 24.0132C44.5716 23.8985 44.6412 23.7838 44.7129 23.6656C45.8686 21.7923 47.1839 20.5331 49.3896 19.9708C51.6203 19.593 53.7546 19.9486 55.627 21.2632C57.1567 22.3932 58.0475 24.0515 58.3374 25.9166C58.5976 28.1975 57.8663 30.0258 56.627 31.8882C56.7167 31.9216 56.8065 31.9549 56.8989 31.9893C59.4652 33.0719 61.1395 35.4278 62.2285 37.896C62.8992 39.5852 63.445 41.9305 62.8066 43.6929C62.0489 45.2877 60.5057 46.2167 58.8947 46.8002C55.9272 47.7759 52.7687 47.9862 49.666 47.8414C49.5505 47.8361 49.4351 47.8308 49.3161 47.8254C48.8535 47.801 48.407 47.7683 47.9497 47.6915C46.8411 47.5084 45.9613 47.8649 44.9279 48.2311C37.6045 50.8259 26.5178 51.2748 19.2441 48.2618C17.6015 47.59 16.1766 47.6342 14.4427 47.7854C14.3106 47.7969 14.3106 47.7969 14.1758 47.8086C14.0877 47.8164 13.9997 47.8241 13.909 47.832C10.4846 48.1147 5.63486 47.8614 2.75195 45.7164C2.58163 45.5695 2.41475 45.4184 2.25195 45.2632C2.17123 45.1875 2.0905 45.1118 2.00732 45.0337C1.25697 44.2597 0.862045 43.3361 0.822266 42.2554C0.972764 38.8474 2.35757 35.7826 4.81396 33.4053C5.42156 32.8868 6.08438 32.4506 6.75195 32.0132C6.8757 31.9307 6.99945 31.8482 7.12695 31.7632C7.06959 31.677 7.01223 31.5908 6.95312 31.502C5.68222 29.5556 5.16027 27.6192 5.58789 25.2964C6.14857 23.3434 7.24837 21.8019 9.00195 20.7632C10.7823 19.8271 12.8104 19.5244 14.7676 20.0992C15.0143 20.1903 15.2594 20.2864 15.502 20.3882C15.6088 20.4292 15.7156 20.4701 15.8257 20.5123C17.1939 21.1045 18.2303 22.2146 18.9639 23.4864C19.119 23.7761 19.119 23.7761 19.377 24.0132C19.4678 23.9422 19.5587 23.8711 19.6523 23.7979C20.8477 22.8799 22.0352 22.0538 23.502 21.6382C23.4323 21.5549 23.3627 21.4716 23.291 21.3858C21.7374 19.5094 20.4606 17.6591 19.877 15.2632C19.8349 15.094 19.8349 15.094 19.792 14.9214C19.1359 11.7397 19.8328 8.31467 21.6014 5.60515C23.5702 2.76771 26.4825 0.882694 29.877 0.263233C33.2256 -0.22091 36.6704 0.51486 39.3848 2.59917ZM24.252 5.88823C22.3982 8.12081 21.571 10.7926 21.7817 13.67C22.0965 16.4643 23.5377 18.9899 25.7207 20.7476C27.3306 21.986 29.3469 22.7506 31.377 22.8882C31.4636 22.8947 31.5503 22.9011 31.6396 22.9078C33.2657 22.973 34.9084 22.5608 36.377 21.8882C36.492 21.8359 36.6071 21.7835 36.7256 21.7295C39.1654 20.5096 40.883 18.29 41.7988 15.7554C42.616 13.0653 42.3008 10.3828 41.0654 7.88628C39.6831 5.35973 37.5522 3.62677 34.814 2.74761C34.461 2.65572 34.1106 2.57865 33.752 2.51323C33.6127 2.48487 33.4735 2.45651 33.3301 2.4273C29.8236 2.12501 26.6518 3.26402 24.252 5.88823ZM8.87256 23.6597C7.99335 24.7424 7.42319 25.9457 7.47119 27.3687C7.62648 28.7294 8.22053 29.9832 9.21875 30.9297C10.1377 31.6063 11.2555 32.1584 12.4004 32.146C12.5362 32.1449 12.6721 32.1438 12.812 32.1426C12.9159 32.1412 13.0199 32.1397 13.127 32.1382C13.1875 32.0113 13.2481 31.8843 13.3105 31.7535C14.1512 30.0167 15.1411 28.3899 16.5 27.0035C16.5637 26.9376 16.6274 26.8717 16.693 26.8038C16.8183 26.6752 16.9455 26.5484 17.0749 26.4239C17.3825 26.1082 17.5026 25.9547 17.498 25.5064C17.0775 24.2278 16.187 23.1497 14.9941 22.5289C12.8512 21.5646 10.5124 21.9098 8.87256 23.6597ZM47.627 23.5132C47.2963 23.9093 47.0118 24.3177 46.752 24.7632C46.7006 24.8451 46.6492 24.9269 46.5962 25.0113C46.4642 25.3642 46.4992 25.5338 46.627 25.8882C46.8987 26.2294 46.8987 26.2294 47.2441 26.5679C48.7593 28.1558 50.0513 30.102 50.877 32.1382C52.3828 32.2431 53.4961 31.8432 54.688 30.92C55.7336 29.9817 56.2385 28.7924 56.4243 27.4112C56.4796 26.1851 56.126 24.9278 55.3296 23.9844C55.2627 23.9114 55.1959 23.8384 55.127 23.7632C55.0614 23.6864 54.9958 23.6095 54.9282 23.5303C54.1146 22.6363 52.9678 22.0869 51.7646 21.9815C50.1411 21.9217 48.8257 22.4087 47.627 23.5132ZM37.1475 23.6587C34.7963 25.023 31.4748 25.1432 28.8892 24.4654C27.9207 24.1805 26.8869 23.8635 26.0002 23.3744C25.5188 23.1588 24.9855 23.3012 24.5081 23.4792C24.2615 23.5921 24.0225 23.7138 23.7832 23.8414C23.653 23.9091 23.653 23.9091 23.5201 23.9782C23.263 24.113 23.0074 24.2503 22.752 24.3882C22.6195 24.4583 22.4871 24.5284 22.3506 24.6006C18.1107 26.9479 15.1203 31.1201 13.7832 35.7242C13.2374 37.7169 12.5957 40.4342 13.502 42.3882C15.2038 45.1255 18.6628 46.1801 21.627 46.8882C29.3023 48.6059 39.0983 48.8099 46.377 45.5132C46.5057 45.4572 46.6344 45.4011 46.7671 45.3433C48.3427 44.6139 49.824 43.5654 50.5215 41.9229C50.6572 41.3959 50.6697 40.907 50.666 40.3648C50.6653 40.2551 50.6646 40.1453 50.6639 40.0323C50.5788 35.3289 48.5078 30.9714 45.252 27.6382C45.1537 27.5322 45.0554 27.4262 44.9541 27.3169C43.5757 25.8658 41.9118 24.8024 40.1379 23.8967C39.9721 23.8119 39.8071 23.7254 39.6433 23.6366C38.6381 23.0979 38.1239 23.0688 37.1475 23.6587ZM5.95752 35.4249C5.84843 35.5365 5.73935 35.6482 5.62695 35.7632C5.53462 35.853 5.4423 35.9427 5.34717 36.0352C3.707 37.7263 2.93167 40.1501 2.96094 42.4698C3.01947 43.0669 3.17033 43.3793 3.62695 43.7632C5.90826 45.5269 9.42455 45.7895 12.1973 45.771C12.3591 45.7705 12.521 45.7699 12.6877 45.7693C13.0842 45.7679 13.4805 45.7658 13.877 45.7632C13.7841 45.6709 13.6913 45.5786 13.5957 45.4835C12.7565 44.6407 12.0951 43.8669 11.627 42.7632C11.5754 42.6421 11.5238 42.5209 11.4707 42.396C10.9129 40.1184 11.3495 37.3678 12.0181 35.1514C12.1495 34.7502 12.1495 34.7502 12.127 34.2632C11.9913 34.2315 11.8556 34.1998 11.7158 34.167C11.5351 34.1236 11.3545 34.0802 11.1738 34.0367C11.0847 34.016 10.9956 33.9953 10.9038 33.9739C10.3498 33.8392 9.88698 33.6492 9.37695 33.3882C8.12508 33.3882 6.80246 34.5854 5.95752 35.4249ZM54.002 33.6226C53.3032 33.8857 52.614 34.0299 51.877 34.1382C51.9426 34.7407 52.0369 35.3166 52.1782 35.9055C52.7361 38.2699 53.3001 41.3036 52.002 43.5132C51.4642 44.3485 50.9051 45.0222 50.127 45.6382C50.127 45.6795 50.127 45.7207 50.127 45.7632C53.4101 45.8361 57.9097 45.9186 60.502 43.5132C60.9606 43.0431 61.0393 42.6658 61.0645 42.0289C60.9867 39.8886 60.1492 37.7646 58.752 36.1382C58.6885 36.057 58.625 35.9758 58.5596 35.8921C57.6304 34.7472 56.3603 33.9416 55.002 33.3882C54.5973 33.3882 54.3753 33.4739 54.002 33.6226Z" fill="#292C61"/>
</svg>
