<svg width="144" height="56" viewBox="0 0 144 56" fill="none" xmlns="http://www.w3.org/2000/svg">
<path d="M32.5174 14.3547V9.01025H14.9785V46.4154H20.8568V30.9699H32.2535V25.6255H20.8568V14.3547H32.5174Z" fill="white"/>
<path d="M52.4494 41.8688V36.0984C52.4494 32.1996 51.4896 29.3684 48.5505 28.1387C51.1717 26.9091 52.4014 24.3958 52.4014 20.5509V17.6118C52.4014 11.8414 49.7801 9.01025 43.6919 9.01025H34.8145V46.4154H40.6928V31.1858H42.7202C45.3954 31.1858 46.5711 32.4695 46.5711 35.9425V41.8208C46.5711 44.8679 46.787 45.4557 47.1049 46.4154H53.0912C52.5033 45.0238 52.4494 43.6862 52.4494 41.8688ZM46.5171 21.8885C46.5171 24.8817 45.1795 25.8414 42.9901 25.8414H40.6928V14.3547H43.5239C45.6113 14.3547 46.5171 15.5304 46.5171 18.1996V21.8885Z" fill="white"/>
<path d="M58.873 41.0708V46.4153H70.5097V41.0708H58.873Z" fill="white"/>
<path d="M90.5795 9.01025L86.5727 35.5706L82.2479 9.01025H74.0723V46.4154H79.2008V19.9631L83.5795 46.4154H89.1399L93.2007 19.5912V46.4154H98.7551V9.01025H90.5795Z" fill="white"/>
<path d="M108.161 17.6115C108.161 14.9363 109.229 13.9226 111.1 13.9226C112.972 13.9226 114.04 14.9363 114.04 17.6115V19.1591H119.6V17.9834C119.6 11.9971 116.661 8.57812 110.945 8.57812C105.228 8.57812 102.289 11.9971 102.289 17.9834C102.289 28.6723 113.776 30.1119 113.776 37.8077C113.776 40.4769 112.6 41.4426 110.729 41.4426C108.857 41.4426 107.681 40.4829 107.681 37.8077V35.1324H102.121V37.4298C102.121 43.4161 105.114 46.8351 110.885 46.8351C116.655 46.8351 119.648 43.4161 119.648 37.4298C119.648 26.7469 108.161 25.3073 108.161 17.6115Z" fill="white"/>
<path d="M121.303 9.01025V14.3547H127.451V46.4154H133.329V14.3547H139.471V9.01025H121.303Z" fill="white"/>
<path d="M58.873 24.6895V30.0339H70.5097V24.6895H58.873Z" fill="white"/>
<path d="M58.873 8.84814V14.1926H70.5097V8.84814H58.873Z" fill="white"/>
</svg>
