<svg width="64" height="65" viewBox="0 0 64 65" fill="none" xmlns="http://www.w3.org/2000/svg">
<g clip-path="url(#clip0_38_322)">
<path d="M31.922 0.107315C32.0176 0.107189 32.1132 0.107063 32.2117 0.106934C33.5944 0.108168 34.9062 0.160132 36.2502 0.513565C36.3981 0.54982 36.546 0.586075 36.6984 0.623428C39.0721 1.2496 41.2805 2.30358 43.2502 3.76357C43.3522 3.83736 43.4542 3.91116 43.5592 3.9872C45.2176 5.24414 46.6153 6.77742 47.7502 8.51357C47.8262 8.61991 47.9023 8.72626 47.9806 8.83583C49.724 11.3558 50.7577 14.8055 50.7743 17.8528C50.7753 17.9582 50.7763 18.0636 50.7774 18.1723C50.7805 18.5186 50.7825 18.865 50.7843 19.2113C50.785 19.3303 50.7857 19.4493 50.7864 19.5719C50.7897 20.2015 50.7921 20.831 50.7939 21.4606C50.7956 21.9796 50.7991 22.4986 50.8042 23.0176C50.8104 23.6468 50.8134 24.2759 50.8143 24.905C50.8152 25.1437 50.8171 25.3824 50.8201 25.621C50.8482 27.9911 50.8482 27.9911 50.1252 29.0136C50.0556 29.127 49.986 29.2404 49.9142 29.3573C49.1623 30.0889 48.2999 30.5309 47.2526 30.5258C47.1072 30.5254 46.9618 30.525 46.8119 30.5246C46.6601 30.5235 46.5082 30.5225 46.3517 30.5214C46.1984 30.5208 46.0451 30.5203 45.8871 30.5197C45.5081 30.5182 45.1292 30.5161 44.7502 30.5136C44.7435 30.601 44.7368 30.6885 44.73 30.7786C44.4699 33.9318 43.2544 36.9967 41.0002 39.2636C41.0374 39.3715 41.0746 39.4794 41.1129 39.5905C41.1983 39.8539 41.2767 40.1197 41.344 40.3883C41.6684 41.635 42.1412 42.999 43.3007 43.6936C44.7629 44.4061 46.3669 44.8021 47.934 45.2134C52.3227 46.3826 55.9393 49.4208 58.2265 53.2985C59.7966 56.039 60.7477 59.054 60.797 62.2245C60.8017 62.34 60.8064 62.4554 60.8112 62.5744C60.8127 62.6863 60.8141 62.7982 60.8156 62.9135C60.8181 63.0138 60.8206 63.1141 60.8231 63.2175C60.7117 63.6696 60.4828 63.8477 60.1252 64.1386C59.7812 64.2001 59.5146 64.2229 59.1715 64.2172C59.076 64.2181 58.9805 64.219 58.8821 64.22C58.5609 64.2223 58.2399 64.2201 57.9187 64.2179C57.6866 64.2186 57.4545 64.2196 57.2224 64.2209C56.5837 64.2235 55.945 64.2222 55.3062 64.2203C54.6178 64.2189 53.9293 64.221 53.2408 64.2228C51.8917 64.2255 50.5426 64.2249 49.1935 64.2231C48.0973 64.2217 47.0011 64.2215 45.905 64.2222C45.7491 64.2223 45.5933 64.2224 45.4327 64.2225C45.1161 64.2227 44.7995 64.2229 44.483 64.2231C41.5972 64.2248 38.7115 64.223 35.8257 64.2198C33.1907 64.2168 30.5556 64.2171 27.9206 64.22C24.9609 64.2234 22.0013 64.2247 19.0417 64.2228C18.7262 64.2226 18.4108 64.2224 18.0954 64.2222C17.9402 64.2221 17.7849 64.222 17.625 64.2219C16.5298 64.2214 15.4346 64.2223 14.3394 64.2237C13.0052 64.2255 11.671 64.225 10.3369 64.2217C9.65577 64.2201 8.97472 64.2194 8.29363 64.2215C7.67062 64.2233 7.04768 64.2223 6.42468 64.219C6.19883 64.2183 5.97297 64.2187 5.74713 64.2202C5.44093 64.2221 5.13499 64.2201 4.8288 64.2172C4.74038 64.2187 4.65195 64.2201 4.56085 64.2216C4.0789 64.2124 3.88642 64.1478 3.50787 63.8384C3.24002 63.5008 3.17191 63.378 3.17595 62.9574C3.17598 62.8526 3.17601 62.7477 3.17604 62.6397C3.17988 62.5284 3.18371 62.4172 3.18767 62.3026C3.18997 62.1864 3.19228 62.0702 3.19466 61.9505C3.3421 57.182 5.50433 52.9249 8.75017 49.5136C8.87077 49.3809 8.87077 49.3809 8.99382 49.2455C11.2076 46.8876 14.2246 45.7435 17.2267 44.7636C17.5107 44.6692 17.7947 44.5746 18.0785 44.4799C18.595 44.3078 19.1117 44.1368 19.629 43.9672C19.7923 43.9123 19.7923 43.9123 19.9588 43.8564C20.2502 43.7636 20.2502 43.7636 20.6775 43.6658C21.1476 43.444 21.3039 43.0809 21.5197 42.6317C21.5636 42.5445 21.6075 42.4572 21.6528 42.3674C21.7447 42.1832 21.8354 41.9985 21.925 41.8132C22.0626 41.5294 22.2048 41.2483 22.3478 40.9672C22.4367 40.7878 22.5252 40.6083 22.6134 40.4286C22.6561 40.3445 22.6988 40.2603 22.7428 40.1737C22.9675 39.7178 22.9675 39.7178 22.9177 39.2298C22.5897 38.8065 22.2529 38.3918 21.9119 37.979C21.4918 37.4547 21.2338 36.969 20.9767 36.3495C20.7943 35.9396 20.7943 35.9396 20.5002 35.6386C19.9822 35.5166 19.5235 35.5125 18.9953 35.5238C18.2911 35.5092 17.8273 35.2703 17.2502 34.8886C17.1367 34.819 17.0233 34.7493 16.9064 34.6776C16.3806 34.1372 15.7626 33.2956 15.7443 32.5149C15.7494 32.3757 15.7494 32.3757 15.7546 32.2338C15.8219 31.086 15.8219 31.086 15.3654 30.1005C15.0415 29.9224 15.0415 29.9224 14.6974 29.785C13.9848 29.4611 13.6244 28.71 13.3314 28.0148C13.1895 27.576 13.198 27.1458 13.2016 26.6882C13.201 26.5842 13.2003 26.4802 13.1997 26.373C13.198 26.0308 13.1991 25.6887 13.2004 25.3466C13.2001 25.1063 13.1997 24.866 13.1993 24.6257C13.1987 24.122 13.1995 23.6183 13.2013 23.1146C13.2034 22.4748 13.2022 21.8352 13.1999 21.1954C13.1986 20.6986 13.199 20.2019 13.2 19.7051C13.2002 19.4696 13.1999 19.2341 13.1991 18.9987C13.1839 13.8151 15.1784 9.13651 18.7502 5.38857C19.0701 5.07894 19.4048 4.79434 19.7502 4.51357C19.8655 4.4185 19.9809 4.32343 20.0998 4.22548C23.4795 1.49844 27.5903 0.111247 31.922 0.107315ZM27.6252 3.26357C27.534 3.28969 27.4428 3.31581 27.3489 3.34273C24.8172 4.09683 22.6625 5.4543 20.7502 7.26357C20.6472 7.35847 20.5442 7.45338 20.4382 7.55116C18.5605 9.34095 17.2549 11.6683 16.5002 14.1386C16.4526 14.2931 16.4051 14.4476 16.3561 14.6068C16.0631 15.6257 15.9228 16.5797 15.8752 17.6386C16.6589 17.6386 17.4427 17.6386 18.2502 17.6386C18.2785 17.2905 18.3069 16.9425 18.3361 16.5839C18.6459 13.4491 20.0706 10.3315 22.5002 8.26357C24.7905 6.43301 27.4182 5.25752 30.3815 5.23378C30.503 5.23277 30.6246 5.23176 30.7498 5.23072C31.0071 5.229 31.2644 5.22765 31.5217 5.22667C31.7809 5.22524 32.0402 5.2227 32.2994 5.21898C36.0138 5.16582 39.2706 6.17495 42.0002 8.76357C44.4747 11.1762 45.4569 14.2662 45.7502 17.6386C46.5339 17.6386 47.3177 17.6386 48.1252 17.6386C47.9648 13.5217 45.8682 9.70224 42.9299 6.90077C40.8935 5.02845 38.5192 3.88812 35.8752 3.13857C35.7169 3.09329 35.5587 3.04801 35.3957 3.00136C32.9117 2.42212 30.0689 2.55894 27.6252 3.26357ZM23.3361 11.0448C21.9998 12.585 21.1463 14.4946 20.8752 16.5136C20.9656 16.4216 21.056 16.3296 21.1491 16.2348C23.3331 14.0811 26.2168 12.6843 29.3187 12.6683C30.3056 12.7122 30.7269 13.1799 31.3752 13.8886C31.6504 14.1316 31.9369 14.3586 32.2267 14.5839C32.3387 14.6713 32.3387 14.6713 32.453 14.7605C33.1838 15.3222 33.9463 15.8118 34.7502 16.2636C34.8218 16.3043 34.8935 16.345 34.9674 16.3869C37.2958 17.6899 40.4151 18.8982 43.1252 18.7636C43.2427 15.5475 42.3836 12.8977 40.172 10.4979C37.7689 8.20296 34.6706 7.57501 31.4572 7.62001C28.2974 7.70032 25.5522 8.73686 23.3361 11.0448ZM22.0629 19.2381C21.9346 19.4127 21.8075 19.5882 21.6819 19.7647C21.5002 20.0136 21.5002 20.0136 21.3138 20.2339C20.8266 20.8287 20.8011 21.2697 20.8674 22.0214C20.8791 22.1951 20.8791 22.1951 20.8912 22.3722C20.9224 22.7949 20.9608 23.2166 21.0002 23.6386C21.0161 23.8153 21.032 23.992 21.0478 24.1687C21.2432 26.3136 21.4853 28.4495 21.8283 30.5761C21.854 30.7361 21.8798 30.8962 21.9063 31.0611C22.0196 31.736 22.1463 32.367 22.3752 33.0136C22.9401 33.0537 23.5046 33.078 24.0705 33.0995C24.3099 33.1168 24.3099 33.1168 24.5541 33.1344C25.0302 33.148 25.4159 33.1425 25.8752 33.0136C26.1897 32.6894 26.3713 32.3863 26.5657 31.9798C26.9511 31.2668 27.7519 30.8877 28.5002 30.6386C28.8383 30.6107 29.1634 30.5947 29.5016 30.5922C29.5977 30.591 29.6937 30.5899 29.7926 30.5888C29.9955 30.587 30.1984 30.5858 30.4013 30.5854C30.708 30.5839 31.0145 30.5777 31.3212 30.5714C32.6328 30.5579 33.557 30.6936 34.6017 31.5526C35.5033 32.6602 35.7313 33.6071 35.654 35.0169C35.5536 35.8755 35.0312 36.6046 34.3752 37.1386C33.2947 37.8836 32.412 37.9267 31.1317 37.9392C30.9262 37.9419 30.7207 37.9461 30.5153 37.952C29.1969 37.9894 28.1128 37.9508 27.0002 37.1386C26.6095 36.7297 26.3225 36.3271 26.1193 35.7977C25.9085 35.4931 25.9085 35.4931 25.6228 35.4639C25.3011 35.4519 24.9857 35.4592 24.6642 35.4745C24.5526 35.4773 24.4411 35.4801 24.3261 35.483C24.0506 35.4904 23.7755 35.5007 23.5002 35.5136C24.9641 37.8543 27.0619 39.5854 29.7658 40.287C32.4597 40.8134 35.0438 40.3432 37.3752 38.8886C40.0967 36.9492 41.5787 34.1363 42.1252 30.8886C42.6289 27.7737 43.1252 24.5497 43.1252 21.3886C43.0286 21.3749 42.932 21.3612 42.8325 21.3471C37.9872 20.6431 32.8488 19.1495 29.3537 15.4784C29.126 15.2236 29.126 15.2236 28.7111 15.2011C25.9194 15.3668 23.6807 17.0739 22.0629 19.2381ZM15.7502 20.1386C15.7409 21.066 15.7341 21.9935 15.7296 22.921C15.7277 23.2364 15.7251 23.5517 15.7219 23.8671C15.7173 24.321 15.7152 24.7749 15.7135 25.2289C15.7116 25.3693 15.7097 25.5097 15.7077 25.6543C15.7075 26.4118 15.7417 26.9768 16.1252 27.6386C16.7167 28.0553 17.2648 28.0311 17.9709 28.0219C18.1014 28.021 18.1014 28.021 18.2346 28.0201C18.4481 28.0185 18.6616 28.0161 18.8752 28.0136C18.8601 27.8622 18.8601 27.8622 18.8447 27.7079C18.5956 25.1869 18.3986 22.6675 18.2502 20.1386C17.4252 20.1386 16.6002 20.1386 15.7502 20.1386ZM45.7502 20.1386C45.726 20.4871 45.7018 20.8356 45.6769 21.1947C45.3449 25.9511 45.3449 25.9511 45.1252 28.0136C46.5691 28.123 46.5691 28.123 47.8752 27.6386C48.329 26.8554 48.299 26.117 48.2868 25.2289C48.286 25.0102 48.286 25.0102 48.2852 24.787C48.2831 24.3235 48.2784 23.8599 48.2736 23.3964C48.2717 23.0812 48.27 22.766 48.2685 22.4508C48.2644 21.68 48.2579 20.9093 48.2502 20.1386C47.4252 20.1386 46.6002 20.1386 45.7502 20.1386ZM18.2502 30.5136C18.2068 31.3111 18.1898 31.9504 18.6252 32.6386C18.9148 32.8188 19.1712 32.908 19.5002 33.0136C19.664 32.4755 19.5574 32.0214 19.4455 31.4823C19.427 31.3892 19.4086 31.296 19.3896 31.2001C19.3441 30.9711 19.2972 30.7423 19.2502 30.5136C18.9202 30.5136 18.5902 30.5136 18.2502 30.5136ZM28.6252 33.3886C28.3188 33.8482 28.2721 34.2297 28.3752 34.7636C28.7125 35.204 28.9605 35.4154 29.5002 35.5136C29.9086 35.5438 30.3172 35.5424 30.7267 35.5448C30.8364 35.5474 30.946 35.55 31.059 35.5526C31.7617 35.5568 32.2581 35.4838 32.8752 35.1386C33.1816 34.679 33.2282 34.2974 33.1252 33.7636C32.7878 33.3231 32.5398 33.1117 32.0002 33.0136C31.5917 32.9834 31.1831 32.9847 30.7736 32.9823C30.664 32.9797 30.5543 32.9772 30.4413 32.9745C29.7387 32.9703 29.2423 33.0433 28.6252 33.3886ZM38.4289 41.9433C38.3374 42.0346 38.2458 42.126 38.1515 42.2201C38.007 42.3654 38.007 42.3654 37.8595 42.5136C37.7661 42.6065 37.6726 42.6995 37.5763 42.7953C37.0532 43.3194 36.5532 43.8553 36.0701 44.4164C35.81 44.7129 35.5326 44.9885 35.2502 45.2636C34.723 45.7843 34.2298 46.3242 33.7502 46.8886C34.2376 47.4722 34.7442 48.025 35.2843 48.56C35.3554 48.6309 35.4265 48.7018 35.4997 48.7748C35.7235 48.9979 35.9478 49.2206 36.172 49.4433C36.3252 49.5958 36.4784 49.7484 36.6315 49.901C37.0041 50.2722 37.377 50.643 37.7502 51.0136C38.0997 50.7079 38.2656 50.3896 38.4592 49.9701C38.5212 49.8361 38.5833 49.7021 38.6473 49.564C38.7122 49.421 38.7771 49.2781 38.8439 49.1308C38.9435 48.9121 38.9435 48.9121 39.0452 48.6889C39.4305 47.8363 39.8118 46.982 40.1642 46.1151C40.2012 46.0279 40.2381 45.9406 40.2762 45.8507C40.5569 45.1348 40.5381 44.6417 40.2346 43.9374C40.0569 43.5654 39.8704 43.1994 39.6799 42.8339C39.6148 42.7067 39.5498 42.5794 39.4828 42.4484C39.3231 42.1362 39.1622 41.8246 39.0002 41.5136C38.7593 41.5136 38.588 41.7844 38.4289 41.9433ZM24.7502 42.0136C24.5355 42.4101 24.326 42.8092 24.1174 43.2089C24.0567 43.3208 23.996 43.4327 23.9335 43.548C23.5868 44.2193 23.3961 44.6356 23.6252 45.3886C23.7975 45.8848 23.9888 46.3712 24.1877 46.8573C24.2429 46.994 24.2982 47.1307 24.3551 47.2716C24.8574 48.4999 25.4131 49.6988 26.0002 50.8886C26.3652 50.9265 26.3652 50.9265 26.5645 50.7438C26.6303 50.6768 26.6961 50.6099 26.7638 50.5409C26.8371 50.467 26.9104 50.3932 26.9859 50.3171C27.0628 50.2376 27.1397 50.158 27.2189 50.0761C27.2979 49.9957 27.3769 49.9154 27.4582 49.8326C27.9224 49.3574 28.3713 48.8732 28.8005 48.3661C29.1782 47.9357 29.5907 47.5385 30.0002 47.1386C29.447 46.4773 28.865 45.8584 28.256 45.2484C28.1633 45.1553 28.0707 45.0622 27.9752 44.9663C27.7808 44.7713 27.5862 44.5765 27.3915 44.3818C27.0924 44.0824 26.7943 43.782 26.4963 43.4816C26.3069 43.2918 26.1174 43.1021 25.9279 42.9125C25.8386 42.8223 25.7493 42.7321 25.6572 42.6391C25.5746 42.5568 25.4919 42.4746 25.4068 42.3898C25.3341 42.317 25.2614 42.2441 25.1865 42.169C25.0086 41.9869 25.0086 41.9869 24.7502 42.0136ZM29.7502 42.8886C30.3732 43.6427 31.0526 44.3284 31.7502 45.0136C32.2228 44.8219 32.487 44.5345 32.8205 44.1542C32.916 44.0462 33.0116 43.9383 33.11 43.827C33.3341 43.5621 33.546 43.294 33.7502 43.0136C33.608 43.015 33.4659 43.0165 33.3195 43.018C32.1223 43.0263 30.9435 42.996 29.7502 42.8886ZM20.2432 46.5333C20.0953 46.5811 20.0953 46.5811 19.9444 46.6297C19.8384 46.6649 19.7324 46.7 19.6232 46.7362C19.4566 46.7909 19.4566 46.7909 19.2866 46.8467C19.0507 46.9245 18.8149 47.0027 18.5793 47.0813C18.2259 47.1987 17.8719 47.3137 17.5177 47.4286C14.9083 48.2877 12.6568 49.4228 10.6729 51.3472C10.5347 51.4803 10.3934 51.61 10.2511 51.7387C7.74776 54.0564 6.28071 57.6849 5.87517 61.0136C5.87517 61.2198 5.87517 61.4261 5.87517 61.6386C13.7127 61.6386 21.5502 61.6386 29.6252 61.6386C28.9933 60.4747 28.9933 60.4747 28.2892 59.3651C28.2099 59.2473 28.2099 59.2473 28.129 59.1272C27.8536 58.7195 27.5742 58.3148 27.2917 57.912C24.7942 54.3451 22.8072 50.4521 21.2502 46.3886C20.8337 46.3886 20.6213 46.4101 20.2432 46.5333ZM42.7502 46.3886C42.7139 46.48 42.6776 46.5715 42.6402 46.6658C41.0259 50.7119 39.1658 54.7379 36.4982 58.2118C35.9874 58.883 35.5444 59.593 35.1017 60.3104C34.9934 60.4859 34.9934 60.4859 34.8829 60.6649C34.5467 61.1231 34.5467 61.1231 34.3752 61.6386C42.2127 61.6386 50.0502 61.6386 58.1252 61.6386C58.0132 60.2887 58.0132 60.2887 57.7345 58.9901C57.7073 58.8895 57.68 58.789 57.6519 58.6853C56.5222 54.6781 53.9807 51.08 50.3175 49.0203C49.072 48.3707 47.7889 47.8905 46.4577 47.4473C46.1133 47.3325 45.7697 47.2153 45.4262 47.0978C45.2046 47.0229 44.983 46.9481 44.7614 46.8734C44.6094 46.8217 44.6094 46.8217 44.4544 46.7689C43.8847 46.5804 43.347 46.4537 42.7502 46.3886ZM31.4284 49.3065C31.2979 49.4373 31.1683 49.5689 31.0392 49.7011C30.9371 49.8044 30.9371 49.8044 30.833 49.9098C30.4068 50.3441 30.0009 50.7904 29.6071 51.2543C29.1951 51.7149 28.7486 52.1422 28.3068 52.5741C27.7968 53.0405 27.7968 53.0405 27.6222 53.6674C27.8123 54.1818 28.1115 54.6031 28.422 55.0526C28.4893 55.1518 28.5565 55.2509 28.6258 55.3531C28.9517 55.8325 29.2814 56.3091 29.6115 56.7855C29.7254 56.9501 29.8394 57.1146 29.9533 57.2792C30.0088 57.3592 30.0642 57.4391 30.1214 57.5215C30.7373 58.4158 31.3078 59.338 31.8752 60.2636C32.3141 60.1172 32.3395 60.0463 32.5578 59.6586C32.6159 59.5577 32.674 59.4569 32.7339 59.353C32.796 59.2435 32.8581 59.1341 32.922 59.0214C33.4387 58.1333 33.9829 57.2849 34.5939 56.4589C35.0751 55.8055 35.5499 55.1523 35.9845 54.4667C36.1039 54.2796 36.1039 54.2796 36.2258 54.0888C36.399 53.7859 36.399 53.7859 36.347 53.5212C36.2303 53.2108 36.0842 53.0508 35.8498 52.8167C35.7655 52.7316 35.6813 52.6466 35.5944 52.5589C35.5029 52.4686 35.4114 52.3782 35.3171 52.285C35.2235 52.1914 35.1299 52.0978 35.0335 52.0013C34.8357 51.8038 34.6374 51.6067 34.4387 51.41C34.1335 51.1078 33.8301 50.804 33.5268 50.4999C33.3346 50.3084 33.1423 50.117 32.9499 49.9257C32.8586 49.8343 32.7673 49.7429 32.6733 49.6487C32.5886 49.5652 32.5039 49.4818 32.4167 49.3958C32.3421 49.3218 32.2676 49.2478 32.1907 49.1715C31.8409 48.8815 31.7576 49.0068 31.4284 49.3065Z" fill="#292C61"/>
<path d="M50.6245 52.0136C51.0073 52.2168 51.0073 52.2168 51.3745 52.5136C51.4408 52.5637 51.5072 52.6139 51.5756 52.6655C52.8552 53.678 54.4594 55.5462 54.687 57.2246C54.6133 57.7128 54.4704 57.9177 54.1245 58.2636C53.6877 58.482 53.2261 58.4577 52.7495 58.3886C52.1656 57.9855 51.8547 57.3423 51.4887 56.7465C51.1795 56.284 50.8206 55.8879 50.4374 55.4858C50.2495 55.2636 50.2495 55.2636 50.2495 55.0136C50.1766 54.9817 50.1038 54.9498 50.0288 54.917C49.5293 54.6428 49.1813 54.2394 48.8745 53.7636C48.7655 53.3702 48.7989 53.1826 48.8745 52.7636C49.3369 52.0391 49.7823 51.9015 50.6245 52.0136Z" fill="#292C61"/>
<path d="M46.3746 49.6388C46.7652 49.8732 46.7652 49.8732 46.9996 50.2638C47.1232 50.8921 47.0967 51.3519 46.7652 51.9044C46.2128 52.2359 45.7529 52.2624 45.1246 52.1388C44.734 51.9044 44.734 51.9044 44.4996 51.5138C44.376 50.8855 44.4025 50.4256 44.734 49.8732C45.2865 49.5417 45.7463 49.5152 46.3746 49.6388Z" fill="#292C61"/>
</g>
<defs>
<clipPath id="clip0_38_322">
<rect width="64" height="64" fill="white" transform="translate(0 0.138672)"/>
</clipPath>
</defs>
</svg>
