<svg width="125" height="40" viewBox="0 0 125 40" fill="none" xmlns="http://www.w3.org/2000/svg">
<path d="M17.8631 6.54563V1.20117H0.324219V38.6064H6.20252V23.1608H17.5992V17.8164H6.20252V6.54563H17.8631Z" fill="#292C61"/>
<path d="M37.7951 34.0597V28.2893C37.7951 24.3905 36.8353 21.5593 33.8962 20.3296C36.5174 19.1 37.7471 16.5867 37.7471 12.7418V9.80268C37.7471 4.03235 35.1258 1.20117 29.0376 1.20117H20.1602V38.6064H26.0385V23.3768H28.0659C30.7411 23.3768 31.9168 24.6604 31.9168 28.1334V34.0117C31.9168 37.0588 32.1327 37.6466 32.4506 38.6064H38.4369C37.849 37.2148 37.7951 35.8772 37.7951 34.0597ZM31.8628 14.0794C31.8628 17.0726 30.5252 18.0323 28.3358 18.0323H26.0385V6.54563H28.8696C30.957 6.54563 31.8628 7.72129 31.8628 10.3905V14.0794Z" fill="#292C61"/>
<path d="M44.2188 33.2627V38.6071H55.8554V33.2627H44.2188Z" fill="#292C61"/>
<path d="M75.9252 1.20117L71.9184 27.7615L67.5936 1.20117H59.418V38.6064H64.5465V12.154L68.9252 38.6064H74.4856L78.5464 11.7821V38.6064H84.1008V1.20117H75.9252Z" fill="#292C61"/>
<path d="M93.507 9.80292C93.507 7.12769 94.5747 6.11399 96.4462 6.11399C98.3177 6.11399 99.3853 7.12769 99.3853 9.80292V11.3505H104.946V10.1748C104.946 4.18854 102.007 0.769531 96.2902 0.769531C90.5739 0.769531 87.6348 4.18854 87.6348 10.1748C87.6348 20.8637 99.1214 22.3033 99.1214 29.9991C99.1214 32.6683 97.9458 33.634 96.0743 33.634C94.2028 33.634 93.0272 32.6743 93.0272 29.9991V27.3239H87.4668V29.6212C87.4668 35.6075 90.4599 39.0265 96.2303 39.0265C102.001 39.0265 104.994 35.6075 104.994 29.6212C104.994 18.9383 93.507 17.4987 93.507 9.80292Z" fill="#292C61"/>
<path d="M106.648 1.20117V6.54563H112.797V38.6064H118.675V6.54563H124.817V1.20117H106.648Z" fill="#292C61"/>
<path d="M44 17V22.3445H55.6366V17H44Z" fill="#292C61"/>
<path d="M44.2188 1.04004V6.38449H55.8554V1.04004H44.2188Z" fill="#292C61"/>
</svg>
