<svg width="64" height="65" viewBox="0 0 64 65" fill="none" xmlns="http://www.w3.org/2000/svg">
<path d="M34.3801 15.4782C34.5531 15.5633 34.5531 15.5633 34.7295 15.6503C35.1 15.8329 35.4698 16.0169 35.8396 16.2008C36.0959 16.3274 36.3522 16.4539 36.6086 16.5802C36.9864 16.7664 37.3641 16.9526 37.7417 17.1392C38.5969 17.5619 39.4543 17.9792 40.3161 18.3883C40.53 18.49 40.7439 18.5917 40.9577 18.6935C41.0638 18.7439 41.1699 18.7944 41.2792 18.8464C42.1494 19.262 43.0172 19.6828 43.8852 20.1031C44.641 20.4689 45.3977 20.8322 46.157 21.1906C46.2997 21.2582 46.4424 21.3258 46.5894 21.3954C46.8582 21.5226 47.1274 21.6492 47.3969 21.775C47.5172 21.8321 47.6375 21.8891 47.7615 21.9479C47.866 21.997 47.9706 22.0461 48.0783 22.0966C48.4322 22.293 48.7105 22.4822 49.0036 22.7633C49.0823 23.1085 49.0823 23.1085 49.083 23.5129C49.0848 23.6664 49.0865 23.82 49.0883 23.9781C49.0871 24.1479 49.0858 24.3177 49.0845 24.4874C49.0854 24.6665 49.0865 24.8456 49.0878 25.0246C49.0907 25.5107 49.0896 25.9967 49.0876 26.4827C49.086 26.9913 49.0875 27.4999 49.0885 28.0085C49.0896 28.8626 49.0881 29.7167 49.0851 30.5708C49.0817 31.5584 49.0828 32.5458 49.0863 33.5334C49.0891 34.3812 49.0895 35.229 49.0879 36.0768C49.0869 36.5831 49.0868 37.0895 49.0888 37.5959C49.0906 38.072 49.0894 38.548 49.0858 39.0241C49.0849 39.1988 49.0852 39.3736 49.0866 39.5483C49.0883 39.7868 49.0857 40.0253 49.083 40.2637C49.0828 40.3972 49.0825 40.5307 49.0823 40.6682C48.9765 41.1323 48.7686 41.2573 48.3786 41.5133C48.1188 41.6638 48.1188 41.6638 47.8599 41.7892C47.7615 41.8373 47.6631 41.8855 47.5618 41.9351C47.4565 41.9855 47.3513 42.036 47.2429 42.088C47.0769 42.1688 47.0769 42.1688 46.9076 42.2512C46.5493 42.4253 46.1906 42.5982 45.8318 42.7711C45.5848 42.8908 45.3378 43.0106 45.0909 43.1305C44.3957 43.4675 43.6998 43.8032 43.0036 44.1383C42.9189 44.1791 42.8342 44.2199 42.7469 44.262C41.9851 44.6288 41.2221 44.9932 40.4585 45.3562C39.8322 45.6545 39.2071 45.9552 38.5818 46.2555C38.4527 46.3174 38.3236 46.3793 38.1907 46.4431C37.5176 46.766 36.845 47.0899 36.1731 47.4152C35.4097 47.7844 34.6452 48.1508 33.8786 48.5133C33.7321 48.5826 33.7321 48.5826 33.5827 48.6534C33.3385 48.7677 33.0934 48.8795 32.8474 48.9899C32.6569 49.0762 32.6569 49.0762 32.4626 49.1642C31.8763 49.3382 31.4178 49.1189 30.8865 48.8595C30.7662 48.8013 30.6459 48.743 30.5219 48.683C30.3273 48.5874 30.3273 48.5874 30.1286 48.4899C29.9233 48.3902 29.9233 48.3902 29.7138 48.2885C29.4202 48.1458 29.1266 48.003 28.8332 47.8598C28.1548 47.5289 27.4746 47.2014 26.7947 46.8735C26.5648 46.7627 26.3349 46.6517 26.1051 46.5406C24.7416 45.882 23.3766 45.2265 22.0112 44.5718C21.6239 44.386 21.2366 44.2002 20.8493 44.0143C20.6552 43.9211 20.6552 43.9211 20.4572 43.8261C20.1985 43.7019 19.9399 43.5775 19.6814 43.4529C18.998 43.1239 18.3131 42.7987 17.6257 42.4782C17.4824 42.4108 17.3391 42.3434 17.1914 42.2741C16.916 42.1447 16.6401 42.0164 16.3637 41.8893C16.2401 41.831 16.1164 41.7726 15.989 41.7125C15.8799 41.6619 15.7709 41.6112 15.6585 41.559C15.3368 41.3628 15.1988 41.2103 15.0036 40.8883C14.9557 40.5474 14.9557 40.5474 14.9543 40.149C14.9529 39.9978 14.9515 39.8466 14.95 39.6907C14.9504 39.5235 14.9507 39.3563 14.9511 39.1891C14.9502 39.0127 14.9492 38.8363 14.9479 38.6599C14.9452 38.1811 14.9448 37.7023 14.945 37.2235C14.945 36.8237 14.944 36.4239 14.9429 36.0241C14.9405 35.0809 14.9402 34.1377 14.941 33.1945C14.9418 32.2216 14.939 31.2487 14.9343 30.2758C14.9305 29.4403 14.9291 28.6049 14.9296 27.7694C14.9298 27.2704 14.9292 26.7716 14.9261 26.2726C14.9233 25.8034 14.9235 25.3343 14.9261 24.8651C14.9265 24.693 14.9259 24.5209 14.9241 24.3488C14.9099 22.8858 14.9099 22.8858 15.2994 22.4809C15.6429 22.2539 15.9735 22.0669 16.3498 21.8995C16.5605 21.8042 16.5605 21.8042 16.7755 21.7069C17.0006 21.6072 17.0006 21.6072 17.2302 21.5055C17.5483 21.3619 17.8658 21.2172 18.1833 21.0724C18.2633 21.0361 18.3433 20.9997 18.4256 20.9623C19.1822 20.6171 19.9259 20.2484 20.6677 19.8727C21.7145 19.344 22.7664 18.8288 23.8257 18.3258C24.6703 17.9242 25.5117 17.5166 26.352 17.106C27.106 16.7377 27.8614 16.3721 28.6174 16.0077C29.1378 15.7564 29.655 15.4998 30.1706 15.2389C30.3883 15.1323 30.6061 15.0258 30.824 14.9196C30.9618 14.8467 30.9618 14.8467 31.1024 14.7723C32.224 14.2388 33.3579 14.9659 34.3801 15.4782ZM31.4353 16.7799C31.2524 16.8679 31.2524 16.8679 31.0659 16.9576C30.8649 17.0548 30.8649 17.0548 30.6599 17.1539C30.5208 17.221 30.3816 17.288 30.2383 17.3571C29.862 17.5384 29.4858 17.72 29.1097 17.9017C28.8065 18.0482 28.5033 18.1945 28.2001 18.3409C27.6684 18.5975 27.1368 18.8542 26.6052 19.111C25.3715 19.7069 24.1366 20.3004 22.9011 20.8927C22.3572 21.1535 21.8136 21.415 21.2702 21.6769C21.1289 21.7449 20.9875 21.813 20.8419 21.8831C20.572 22.0131 20.3023 22.1431 20.0326 22.2734C19.4033 22.5762 18.7735 22.8701 18.1286 23.1383C18.455 23.3937 18.7754 23.6024 19.1459 23.7874C19.2465 23.8378 19.347 23.8882 19.4506 23.9402C19.5582 23.9933 19.6658 24.0465 19.7766 24.1012C19.9439 24.1841 19.9439 24.1841 20.1147 24.2686C20.3502 24.3849 20.5858 24.5009 20.8217 24.6166C21.1824 24.7941 21.5418 24.974 21.9013 25.1539C22.1305 25.2667 22.3598 25.3794 22.5891 25.4918C22.6964 25.546 22.8037 25.6001 22.9143 25.6559C23.0152 25.7048 23.1162 25.7536 23.2202 25.804C23.3083 25.8475 23.3965 25.8911 23.4873 25.936C24.0405 26.0966 24.5191 25.8422 25.0134 25.6007C25.1976 25.5114 25.1976 25.5114 25.3856 25.4204C25.5174 25.3556 25.6491 25.2909 25.7849 25.2242C26.0687 25.0864 26.3526 24.9485 26.6364 24.8107C26.7811 24.7401 26.9258 24.6696 27.0749 24.5969C27.7269 24.2797 28.3809 23.967 29.0349 23.6539C30.3294 23.033 31.6224 22.409 32.9149 21.784C33.6424 21.4323 34.3706 21.082 35.1003 20.735C35.232 20.6723 35.3637 20.6096 35.4994 20.5451C35.7448 20.4285 35.9903 20.3122 36.2359 20.1961C36.7574 19.9483 37.2662 19.7 37.7536 19.3883C37.425 19.1303 37.1038 18.9239 36.7284 18.7412C36.6262 18.6912 36.5241 18.6412 36.4188 18.5897C36.3097 18.5369 36.2005 18.4842 36.0881 18.4298C35.9754 18.3749 35.8626 18.3199 35.7464 18.2633C35.5088 18.1476 35.271 18.0321 35.0331 17.9169C34.6675 17.7398 34.3022 17.5618 33.937 17.3837C33.7061 17.2714 33.4753 17.1592 33.2444 17.047C33.1345 16.9935 33.0246 16.94 32.9114 16.8849C32.7599 16.8116 32.7599 16.8116 32.6054 16.7369C32.4715 16.6719 32.4715 16.6719 32.3349 16.6057C31.9667 16.4408 31.7924 16.6077 31.4353 16.7799ZM36.3634 22.1165C35.7286 22.4767 35.0722 22.7854 34.4099 23.0914C34.1822 23.1997 33.9547 23.3082 33.7273 23.4171C33.6118 23.4723 33.4963 23.5275 33.3773 23.5843C32.653 23.9313 31.9299 24.281 31.2068 24.6305C29.5571 25.4277 27.9058 26.2214 26.2536 27.0133C26.5109 27.292 26.7449 27.4687 27.0859 27.6335C27.1764 27.6777 27.267 27.7219 27.3602 27.7674C27.4575 27.8139 27.5548 27.8604 27.655 27.9083C27.7556 27.9571 27.8563 28.006 27.96 28.0563C28.1727 28.1593 28.3856 28.2619 28.5986 28.3642C28.9238 28.5203 29.2484 28.6775 29.573 28.8348C29.78 28.9349 29.987 29.0349 30.1941 29.1349C30.2908 29.1816 30.3876 29.2284 30.4873 29.2766C30.742 29.3988 30.9977 29.5188 31.2536 29.6383C31.4218 29.7196 31.4218 29.7196 31.5933 29.8026C32.1181 29.9603 32.5714 29.7528 33.0453 29.5185C33.2004 29.4425 33.2004 29.4425 33.3586 29.365C33.4693 29.3098 33.58 29.2547 33.6941 29.1979C33.8103 29.1407 33.9265 29.0836 34.0462 29.0247C34.4229 28.8393 34.7992 28.6528 35.1755 28.4664C35.5634 28.2753 35.9513 28.0845 36.3393 27.8937C36.5931 27.7688 36.8468 27.6439 37.1005 27.5189C37.9615 27.0947 38.8242 26.6751 39.6911 26.2633C40.442 25.9065 41.1919 25.5479 41.9402 25.1857C42.0625 25.1264 42.0625 25.1264 42.1874 25.066C42.5116 24.9091 42.8358 24.7522 43.1598 24.5949C44.0185 24.178 44.8785 23.7696 45.7536 23.3883C45.7536 23.3058 45.7536 23.2233 45.7536 23.1383C45.546 23.0329 45.3383 22.9276 45.1306 22.8224C44.9969 22.7546 44.8633 22.6868 44.7255 22.6169C44.4288 22.4682 44.1319 22.3217 43.8328 22.178C43.1522 21.8495 42.4949 21.5237 41.8762 21.0846C39.8978 19.7681 38.183 21.0788 36.3634 22.1165ZM16.8786 24.7633C16.8786 29.7958 16.8786 34.8283 16.8786 40.0133C20.7843 41.9291 20.7843 41.9291 24.7029 43.816C25.4746 44.1831 26.2436 44.5559 27.0129 44.9281C28.5801 45.6868 28.5801 45.6868 30.1521 46.4352C30.2905 46.5006 30.4289 46.566 30.5715 46.6334C30.8614 46.7795 30.8614 46.7795 31.1286 46.7633C31.1286 41.7721 31.1286 36.7808 31.1286 31.6383C29.2744 30.6553 29.2745 30.6553 27.3943 29.7321C27.1507 29.6167 26.9072 29.5013 26.6638 29.3859C26.5373 29.326 26.4108 29.2661 26.2805 29.2044C25.6233 28.8919 24.9682 28.5749 24.313 28.258C23.9283 28.0719 23.5433 27.8861 23.1584 27.7003C22.7136 27.4855 22.2688 27.2706 21.8241 27.0554C21.418 26.8587 21.0116 26.6626 20.6052 26.4664C20.489 26.4101 20.3729 26.3537 20.2532 26.2956C19.1384 25.7584 18.0115 25.2668 16.8786 24.7633ZM46.0808 25.2072C45.9861 25.2534 45.8915 25.2996 45.7939 25.3472C45.59 25.4467 45.386 25.5464 45.1822 25.6462C44.6486 25.9073 44.1147 26.1676 43.5808 26.4279C43.4754 26.4792 43.3701 26.5306 43.2615 26.5836C42.4689 26.9699 41.6747 27.3528 40.8786 27.7321C39.6749 28.3056 38.4739 28.8845 37.2737 29.4653C35.8524 30.1525 34.4278 30.8322 33.0036 31.5133C33.0036 36.5458 33.0036 41.5783 33.0036 46.7633C34.9471 45.8967 34.9471 45.8967 36.8552 44.9664C37.8939 44.4408 38.939 43.9311 39.9902 43.4309C40.6719 43.1065 41.3528 42.7808 42.0324 42.4523C42.1104 42.4146 42.1883 42.3769 42.2686 42.3381C42.6465 42.1554 43.0243 41.9725 43.4021 41.7895C44.641 41.1903 45.8847 40.6025 47.1286 40.0133C47.1286 34.9808 47.1286 29.9483 47.1286 24.7633C46.7907 24.7633 46.3869 25.0569 46.0808 25.2072Z" fill="#292C61"/>
<path d="M58.7535 20.2638C59.205 20.6242 59.37 20.9825 59.5538 21.5231C59.6054 21.6746 59.6571 21.8262 59.7103 21.9824C59.764 22.1464 59.8174 22.3105 59.8707 22.4747C59.8981 22.558 59.9255 22.6412 59.9538 22.727C60.4827 24.3404 60.8626 25.9609 61.1285 27.6388C61.1446 27.7331 61.1606 27.8275 61.1772 27.9247C62.365 35.0814 60.3455 43.0407 56.1806 48.918C55.4347 49.9447 54.645 50.9213 53.7765 51.8468C53.538 52.1019 53.3131 52.363 53.0894 52.631C49.1784 57.1099 43.2201 59.8462 37.5035 61.0138C37.3988 61.0362 37.2942 61.0586 37.1863 61.0817C33.6195 61.8161 29.4212 61.6756 25.8785 60.8888C25.7451 60.8593 25.6117 60.8298 25.4742 60.7994C20.4391 59.6427 15.919 57.2557 12.1285 53.7638C11.9494 53.6042 11.7698 53.4453 11.5894 53.2872C11.5152 53.222 11.4409 53.1567 11.3643 53.0895C11.0824 52.8495 10.793 52.6196 10.5035 52.3888C10.4965 52.4594 10.4895 52.5301 10.4823 52.6029C10.4091 53.3391 10.3337 54.0752 10.2571 54.8111C10.2288 55.0857 10.201 55.3603 10.1738 55.635C10.1346 56.0301 10.0934 56.425 10.0518 56.8199C10.0401 56.9425 10.0284 57.065 10.0163 57.1913C9.95073 57.7956 9.89844 58.2752 9.50351 58.7638C9.1484 58.9413 8.89666 58.9281 8.50351 58.8888C8.17145 58.6323 8.0203 58.4877 7.94922 58.0689C7.95362 57.9502 7.95802 57.8314 7.96255 57.709C7.96713 57.576 7.9717 57.4429 7.97641 57.3058C8.02076 56.6232 8.08308 55.9445 8.15878 55.2648C8.18286 55.0417 8.18286 55.0417 8.20743 54.8142C8.24129 54.5026 8.27555 54.191 8.31021 53.8795C8.36301 53.4032 8.41405 52.9268 8.46493 52.4503C8.49819 52.1463 8.53155 51.8422 8.56503 51.5382C8.5877 51.3255 8.5877 51.3255 8.61083 51.1085C8.79584 49.4709 8.79584 49.4709 9.21235 49.0555C9.60748 48.8292 9.85629 48.8718 10.3065 48.9179C10.4624 48.9328 10.6183 48.9477 10.7789 48.963C10.9355 48.9797 11.0921 48.9965 11.2535 49.0138C11.5268 49.0389 11.8001 49.0639 12.0734 49.0889C12.812 49.1619 13.5503 49.2385 14.2885 49.3162C14.6056 49.3492 14.9229 49.3813 15.2402 49.4125C15.702 49.458 16.1636 49.5064 16.6251 49.5553C16.7668 49.5687 16.9084 49.5822 17.0544 49.596C18.307 49.7343 18.307 49.7343 18.7535 50.2638C18.8313 50.7476 18.8233 51.015 18.5816 51.4435C17.5804 52.0394 15.6777 51.5133 14.5504 51.3888C14.3272 51.3646 14.1041 51.3405 13.8809 51.3165C13.3384 51.258 12.7959 51.1986 12.2535 51.1388C12.7442 51.6407 13.236 52.1213 13.7848 52.5607C14.132 52.8389 14.4777 53.1164 14.8141 53.4078C20.1387 57.9801 27.5448 59.8513 34.4391 59.3356C40.0478 58.8226 45.4896 56.5798 49.7535 52.8888C49.8541 52.8021 49.9546 52.7154 50.0582 52.6261C54.9806 48.2874 57.9914 42.5795 59.1285 36.1388C59.1451 36.0488 59.1617 35.9588 59.1788 35.8661C59.965 31.4436 59.3392 26.3956 57.6516 22.2651C57.4424 21.7454 57.3148 21.3353 57.3785 20.7638C57.7461 20.205 58.1121 20.1722 58.7535 20.2638Z" fill="#292C61"/>
<path d="M51.7198 10.1681C52.2869 10.686 52.8434 11.2128 53.379 11.7633C53.567 11.5753 53.5428 11.3953 53.5697 11.1331C53.581 11.0258 53.5922 10.9185 53.6039 10.808C53.6157 10.6911 53.6276 10.5742 53.6398 10.4537C53.6661 10.2074 53.6925 9.96118 53.7189 9.71493C53.76 9.32576 53.8008 8.93657 53.8406 8.54726C53.8792 8.17218 53.9195 7.79732 53.9601 7.42245C53.9714 7.30705 53.9828 7.19165 53.9945 7.07276C54.0683 6.4027 54.1882 5.86208 54.504 5.26327C54.8591 5.08571 55.1109 5.09895 55.504 5.13827C55.7759 5.34052 55.7759 5.34052 56.004 5.63827C56.0583 6.0118 56.0583 6.0118 56.045 6.44121C56.0404 6.59713 56.0359 6.75304 56.0311 6.91368C55.9905 7.62569 55.9282 8.33242 55.8488 9.0411C55.8247 9.26406 55.8247 9.26406 55.8001 9.49152C55.7663 9.80215 55.7321 10.1127 55.6973 10.4233C55.6444 10.8987 55.5934 11.3743 55.5426 11.8499C55.5094 12.1533 55.476 12.4566 55.4425 12.7598C55.4274 12.9015 55.4123 13.0432 55.3967 13.1891C55.3817 13.3211 55.3667 13.453 55.3513 13.589C55.3385 13.7044 55.3257 13.8199 55.3126 13.9389C55.2245 14.4273 55.1075 14.7849 54.754 15.1383C53.6225 15.2351 52.4759 15.109 51.3512 14.983C51.2026 14.9669 51.0539 14.9509 50.9008 14.9343C50.5902 14.9005 50.2796 14.8663 49.969 14.8316C49.4936 14.7786 49.018 14.7276 48.5424 14.6768C48.2391 14.6436 47.9358 14.6102 47.6325 14.5767C47.42 14.5541 47.42 14.5541 47.2032 14.5309C47.0712 14.5159 46.9393 14.5009 46.8033 14.4855C46.6879 14.4727 46.5724 14.46 46.4534 14.4468C46.1052 14.384 45.8209 14.296 45.504 14.1383C45.2131 13.7019 45.1912 13.5267 45.254 13.0133C45.5017 12.6986 45.6504 12.5335 46.0486 12.4556C47.2392 12.4932 48.4156 12.6236 49.5978 12.7633C49.8077 12.7874 50.0177 12.8115 50.2277 12.8355C50.7366 12.8939 51.2453 12.9533 51.754 13.0133C51.754 12.9308 51.754 12.8483 51.754 12.7633C51.6823 12.7331 51.6106 12.703 51.5368 12.672C51.1992 12.4825 50.9935 12.2585 50.7306 11.9742C48.1525 9.35076 44.7927 7.53678 41.379 6.26327C41.2966 6.23217 41.2141 6.20107 41.1292 6.16903C34.6382 3.75345 27.1543 4.1695 20.8629 6.97469C17.8628 8.3525 15.2592 10.11 12.879 12.3883C12.8169 12.447 12.7547 12.5058 12.6906 12.5664C11.6908 13.5151 10.8248 14.5318 10.004 15.6383C9.9246 15.7448 9.84516 15.8513 9.76332 15.961C7.02199 19.7611 5.41925 24.1465 4.75404 28.7633C4.74097 28.85 4.7279 28.9368 4.71443 29.0261C4.16693 33.1603 4.7474 37.7369 6.27543 41.6009C6.4659 42.0915 6.54916 42.4871 6.50404 43.0133C6.37123 43.3023 6.37123 43.3023 6.12904 43.5133C5.70716 43.6461 5.70716 43.6461 5.25404 43.6383C4.50984 43.1116 4.33289 42.3044 4.06654 41.4664C4.01795 41.3166 3.96936 41.1667 3.91929 41.0124C3.61722 40.0579 3.35192 39.1004 3.13685 38.1226C3.11349 38.0166 3.09012 37.9105 3.06605 37.8012C2.67886 35.9068 2.57782 34.0197 2.58216 32.0914C2.58223 31.9769 2.5823 31.8624 2.58237 31.7444C2.60274 24.2425 5.51918 17.0249 10.754 11.6383C10.8265 11.5625 10.8991 11.4868 10.9738 11.4088C12.0384 10.2988 13.1368 9.2956 14.379 8.38827C14.5068 8.29384 14.6346 8.19942 14.7662 8.10213C18.6013 5.35799 22.9807 3.62485 27.629 2.88827C27.7234 2.87221 27.8177 2.85616 27.9149 2.83962C36.3919 1.4327 45.4242 4.46856 51.7198 10.1681Z" fill="#292C61"/>
<path d="M22.1539 31.6036C22.4524 31.7331 22.7427 31.8733 23.0332 32.0199C23.1925 32.0976 23.1925 32.0976 23.355 32.1769C23.578 32.2862 23.8004 32.3965 24.0225 32.5076C24.3628 32.6778 24.7047 32.8448 25.0469 33.0113C25.2638 33.1181 25.4806 33.2251 25.6973 33.3324C25.7995 33.3824 25.9017 33.4324 26.007 33.4839C26.1013 33.5314 26.1957 33.579 26.2929 33.6279C26.376 33.6693 26.459 33.7106 26.5445 33.7532C26.7529 33.8885 26.7529 33.8885 27.0029 34.2635C27.0576 34.6932 27.0576 34.6932 27.0029 35.1385C26.7451 35.451 26.7451 35.451 26.3779 35.6385C25.6366 35.6006 25.0711 35.346 24.419 35.0223C24.3184 34.9734 24.2179 34.9245 24.1143 34.8742C23.9031 34.7712 23.6922 34.6675 23.4815 34.5634C23.1591 34.4041 22.8358 34.247 22.5122 34.0902C22.3066 33.9895 22.101 33.8888 21.8955 33.7879C21.7508 33.7176 21.7508 33.7176 21.6031 33.6458C21.4685 33.5789 21.4685 33.5789 21.3312 33.5106C21.2525 33.4719 21.1738 33.4331 21.0927 33.3932C20.8552 33.2498 20.6845 33.098 20.5029 32.8885C20.414 32.4561 20.4298 32.0347 20.6279 31.6385C21.1117 31.3966 21.651 31.4394 22.1539 31.6036Z" fill="#292C61"/>
</svg>
